<?xml version="1.0" encoding="utf-8"?>
<svg width="28px" height="25px" viewBox="0 0 28 25" version="1.1" xmlns:xlink="http://www.w3.org/1999/xlink" xmlns="http://www.w3.org/2000/svg">
  <desc>Created with Lunacy</desc>
  <g id="InfiniteLogo" transform="matrix(0.8480481 -0.5299193 0.5299193 0.8480481 0 12.71806)">
    <path d="M15.466 4.76837e-07C18.129 4.76837e-07 19.987 2.043 19.987 4.994C19.987 7.945 18.129 9.988 15.466 9.988C13.047 9.988 11.671 8.143 10.061 6.491C8.426 8.186 6.897 9.988 4.521 9.988C1.858 9.988 0 7.945 0 4.994C0 2.043 1.858 4.76837e-07 4.521 4.76837e-07C6.908 4.76837e-07 8.302 1.884 9.936 3.59C11.563 1.872 13.114 0 15.466 0L15.466 4.76837e-07Z" transform="translate(2.006001 2.005999)" id="White-Background" fill="#FFFFFF" stroke="none" />
    <path d="M11.953 2.683C13.358 1.302 15.09 0 17.472 0C21.254 0 24 2.944 24 7C24 11.056 21.254 14 17.472 14C15.036 14 13.376 12.704 12.053 11.383C10.652 12.732 8.92 14 6.528 14C2.746 14 0 11.056 0 7C0 2.944 2.746 0 6.528 0C8.949 0 10.619 1.328 11.953 2.683ZM17.472 2.006C20.135 2.006 21.993 4.049 21.993 7C21.993 9.951 20.135 11.994 17.472 11.994C15.053 11.994 13.677 10.149 12.067 8.497C10.432 10.192 8.903 11.994 6.527 11.994C3.864 11.994 2.006 9.951 2.006 7C2.006 4.049 3.864 2.006 6.527 2.006C8.914 2.006 10.308 3.89 11.942 5.596C12.0711 5.45963 12.1998 5.32229 12.3284 5.18499C13.8203 3.59261 15.3067 2.006 17.472 2.006ZM6.74104 9.42486C8.14256 9.42486 8.99703 8.27901 9.995 7.09675C8.84406 5.70323 8.06462 4.57414 6.74104 4.57414C5.45897 4.57414 4.63 5.53059 4.63 6.99986C4.63 8.46841 5.45897 9.42486 6.74104 9.42486ZM19.37 6.99986C19.37 8.46766 18.5415 9.42363 17.26 9.42363C15.8993 9.42363 15.0882 8.26453 14.015 6.97948C15.0853 5.69442 15.9022 4.57537 17.26 4.57537C18.5415 4.57537 19.37 5.53133 19.37 6.99986Z" id="Infinity-Shape" fill="#FF3E00" fill-rule="evenodd" stroke="none" />
  </g>
</svg>